<?xml version="1.0" encoding="utf-8"?>
<!-- Generator: Adobe Illustrator 24.0.1, SVG Export Plug-In . SVG Version: 6.00 Build 0)  -->
<svg version="1.1" id="Capa_1" xmlns="http://www.w3.org/2000/svg" xmlns:xlink="http://www.w3.org/1999/xlink" x="0px" y="0px"
	 viewBox="0 0 488.5 488.5" style="enable-background:new 0 0 488.5 488.5;" xml:space="preserve">
<style type="text/css">
	.st0{fill:#179ace;}
</style>
<g>
	<path class="st0" d="M487.3,159.2c-7.8-60.1-55.1-108-115.1-116.5c-6.5-0.9-13.2-1.4-19.7-1.4c-43.4,0-83.4,20.5-108.7,54.2
		c-25.4-33-65-53.2-107.9-53.2c-6.6,0-13.4,0.5-20,1.4C58.8,51.9,12,97.3,2.1,154c-7.5,43.1,5.2,85.8,34.8,117.3
		c3.9,4.7,9.1,10.6,13.9,16l4.1,4.6c30,34.2,93.6,95.9,137.8,135.6c13.8,12.4,32.8,19.7,52,19.7h0.5c19.9-0.5,39-7.5,52.3-19.9
		c37.2-34.7,61.6-59.5,102.3-101.8l1.6-1.6c46-47.5,53.8-57,56.4-60.5C481.7,234.1,492.2,197.1,487.3,159.2z M415.9,229.8
		c-12.3,15.1-9,11.2-53.1,56.7l-1.7,1.8c-39.9,41.6-63.9,65.8-100.2,99.6c-3.6,3.4-11.6,5.3-16.3,5.3c-6.1,0-12.2-2.1-16.2-5.7
		c-42.1-37.9-105.1-98.7-133.4-131l-4.2-4.7c-4.6-5.2-10.9-12.7-14.6-16.8c-17.8-19.6-26.1-45.3-21.4-71.8
		c5.9-34.2,34.2-61.5,68.7-66.5c4.1-0.6,8.3-0.9,12.4-0.9c32.8,0,62.4,19.4,75.5,49.4c5.7,13,18.4,21.4,32.5,21.4
		c14.2,0,27-8.5,32.6-21.7c14.5-34.2,50.5-54.5,88-49.3c35.6,5,64.8,34.6,69.5,70.3C437.2,189.3,430.5,211.9,415.9,229.8z" />
</g>
</svg>
